<svg xmlns="http://www.w3.org/2000/svg" viewBox="0 0 387.86 400.43"><defs><style>.cls-1{fill:#8c30f5;}.cls-2{fill:#2ec5ce;}.cls-3,.cls-4{fill:none;}.cls-4{stroke:#2ec5ce;stroke-miterlimit:10;stroke-width:7px;}</style></defs><title>logo</title><g id="Layer_2" data-name="Layer 2"><g id="Layer_1-2" data-name="Layer 1"><path class="cls-1" d="M193.24,397.1h0V285.19A141.26,141.26,0,0,1,334.5,143.93h0V255.84A141.27,141.27,0,0,1,193.24,397.1"/><path class="cls-1" d="M157.34,322.64v-162A157.33,157.33,0,0,0,0,3.31v162A157.33,157.33,0,0,0,157.34,322.64Z"/><path class="cls-2" d="M300.08,70.64a53.42,53.42,0,1,1-53.42-53.42,53.42,53.42,0,0,1,53.42,53.42"/><rect class="cls-3" x="21.44" width="334.5" height="393.79"/><line class="cls-4" x1="384.37" y1="0.41" x2="358.75" y2="400.2"/></g></g></svg>