<svg xmlns="http://www.w3.org/2000/svg" xmlns:xlink="http://www.w3.org/1999/xlink" width="64" height="64" viewBox="0 0 64 64"><defs><path id="a" d="M.06 64V.04H64V64z"/></defs><g fill="none" fill-rule="evenodd"><mask id="b" fill="#fff"><use xlink:href="#a"/></mask><path fill="#76ABC4" d="M64 32c0 17.673-14.327 32-32 32C14.327 64 0 49.673 0 32 0 14.327 14.327 0 32 0c17.673 0 32 14.327 32 32" mask="url(#b)"/><path fill="#638DA0" d="M36 54h-8a4 4 0 0 1-4-4V38h-7.838c-2.723 0-3.483-1.865-1.691-4.145l14.27-18.145C29.637 14.57 30.819 14 32 14s2.363.57 3.259 1.71l14.27 18.145c1.792 2.28 1.032 4.145-1.69 4.145H40v12a4 4 0 0 1-4 4"/><path fill="#FFFFFE" d="M40 48a4 4 0 0 1-4 4h-8a4 4 0 0 1-4-4V24a4 4 0 0 1 4-4h8a4 4 0 0 1 4 4v24"/><path fill="#FFFFFE" d="M16.162 36c-2.723 0-3.483-1.865-1.691-4.145l14.27-18.145c1.792-2.28 4.726-2.28 6.518 0l14.27 18.145c1.792 2.28 1.032 4.145-1.69 4.145H16.162"/></g></svg>